<?xml version="1.0" encoding="utf-8"?>
<!-- Generator: Adobe Illustrator 21.0.2, SVG Export Plug-In . SVG Version: 6.00 Build 0)  -->
<svg version="1.1" id="Ebene_1" xmlns="http://www.w3.org/2000/svg" xmlns:xlink="http://www.w3.org/1999/xlink" x="0px" y="0px"
	 viewBox="0 0 670.67 200" style="enable-background:new 0 0 670.67 200;" xml:space="preserve">
<style type="text/css">
	.st0{fill:#3C5F81;}
	.st1{fill:#FFFFFF;}
</style>
<g>
	<path class="st1" d="M5.81,106.6c4.3-0.55,8.23-2.36,12.31-3.64c11.65-3.65,23.25-7.46,34.86-11.25c1.12-0.36,2.1-0.38,3.23-0.03
		c14.9,4.5,29.8,8.98,44.73,13.37c1.56,0.46,2.14,1.14,1.91,2.65c-0.01,0.08,0,0.16,0,0.24c0.06,26.31,0.13,52.63,0.19,78.94
		c0.01,5.1-1.42,6.54-6.57,6.51c-6.39-0.03-12.79,0.15-19.18-0.34c-2.02-0.16-2.69-0.68-2.68-2.81c0.14-23.27,0.15-46.55,0.3-69.82
		c0.01-2.04-0.58-2.88-2.55-3.43c-5.3-1.49-10.54-3.21-15.76-4.94c-1.38-0.46-2.58-0.36-3.91,0.1c-5.43,1.88-10.87,3.74-16.36,5.45
		c-1.72,0.54-2.31,1.3-2.3,3.15c0.09,23.04,0.06,46.08,0.17,69.11c0.01,2.26-0.38,3.1-2.91,3.27c-6.72,0.44-13.42,0.3-20.14,0.28
		c-2.46-0.01-4.29-0.99-5.33-3.29C5.81,162.28,5.81,134.44,5.81,106.6z"/>
	<path class="st1" d="M5.81,5.8c1.35-2.21,3.41-2.93,5.87-2.88c6.55,0.12,13.1-0.15,19.65,0.35c2.37,0.18,2.78,0.97,2.77,3.14
		c-0.09,20.07-0.05,40.14-0.05,60.21c0,0.94,0,1.88,0,3.04c6.29-1.9,12.33-3.68,18.33-5.55c1.43-0.45,2.72-0.46,4.16-0.03
		c5.87,1.76,11.77,3.42,17.9,5.19c0-0.94,0-1.64,0-2.34c0.03-15.27,0.04-30.54,0.08-45.81c0.01-4.79,0.16-9.59,0.09-14.38
		c-0.02-1.57,0.54-2.06,1.99-2.21c7.33-0.75,14.69-0.74,22.04-0.59c2.93,0.06,4.1,1.46,4.12,4.48c0.04,6.4,0.01,12.79,0.01,19.19
		c0.02,19.91,0.02,39.82,0.12,59.73c0.01,2.17-0.44,2.43-2.45,1.82c-14.65-4.48-29.34-8.82-43.99-13.27
		c-1.47-0.45-2.75-0.37-4.17,0.09C37.27,80.86,22.24,85.7,7.21,90.55c-0.44,0.14-0.93,0.14-1.4,0.21C5.81,62.44,5.81,34.12,5.81,5.8
		z"/>
	<path class="st1" d="M533.81,1.48c0,36.8-0.05,113.31-0.05,113.31h6.49c0,0,1.72-1.93,2.85-3.15
		c14.09-15.17,28.27-30.26,42.35-45.43c1.53-1.65,3.05-2.6,5.36-2.3c1.38,0.18,2.81,0.03,4.83,0.03c-2.87,3.09-5.32,5.76-7.81,8.4
		c-13.59,14.44-27.16,28.89-40.82,43.25c-1.35,1.42-1.26,2.28-0.26,3.79c10.06,15.09,20.05,30.24,30.05,45.37
		c6.08,9.2,12.16,18.4,18.24,27.6c0.26,0.39,0.48,0.8,0.85,1.42c-2.43,0.5-4.71,0.19-6.95,0.23c-1,0.01-1.22-0.95-1.63-1.58
		c-11.56-17.64-23.1-35.3-34.65-52.96c-3.85-5.89-7.68-11.78-11.54-17.66c-0.19-0.3-0.88-1.13-0.88-1.13h-6.42v2.05
		c0,0-0.01,21.12-0.01,31.68c0,12.4-0.05,24.8,0.05,37.2c0.02,2.02-0.51,2.76-2.5,2.45c-0.7-0.11-1.44-0.06-2.16-0.01
		c-0.99,0.07-1.52-0.28-1.44-1.35c0.04-0.64,0-1.28,0-1.92c0-61.68,0.01-123.36-0.04-185.04c0-2.2-0.06-4.03,2.73-4.27
		C531.57,1.48,532.69,1.48,533.81,1.48z"/>
	<path class="st1" d="M664.85,123.88c-9.67,0.03-19.35,0.07-29.02,0.08c-13.28,0.01-26.55,0-39.83,0.01c-1.01,0-2.31-0.47-2.27,1.46
		c0.24,13.92,0.81,27.81,5.31,41.17c4.85,14.38,14.45,21.38,29.63,22.15c10.86,0.55,20.74-2.1,29.63-8.32
		c1.74-1.22,1.79-0.45,2.28,1.05c0.84,2.57-0.18,3.84-2.27,5.15c-13.92,8.69-28.76,9.47-44.02,4.85
		c-10.49-3.17-16.33-11.22-20.05-21.08c-3.1-8.22-4.43-16.82-5.14-25.51c-1.03-12.6-1.35-25.21-0.09-37.82
		c0.82-8.14,2.36-16.12,5.74-23.63c7.01-15.58,19.97-21.53,35.9-20.27c16.5,1.3,25.34,11.63,30.28,26.31
		c1.79,5.31,2.86,10.79,3.44,16.37c0.05,0.44-0.13,0.99,0.47,1.22C664.85,112.68,664.85,118.28,664.85,123.88z M626.65,119.76
		c10.4,0,20.79-0.03,31.18,0.03c1.65,0.01,2.33-0.44,2.15-2.15c-0.17-1.58-0.16-3.19-0.23-4.78c-0.4-9.08-1.8-17.95-5.45-26.35
		c-5.07-11.67-13.71-18.18-26.66-18.36c-8.46-0.12-16.16,1.96-22.17,8.37c-3.51,3.74-5.7,8.25-7.35,13.05
		c-3.08,9-4.09,18.34-4.62,27.78c-0.11,1.94,0.22,2.46,2.19,2.45C606.02,119.71,616.34,119.76,626.65,119.76z"/>
	<path class="st1" d="M474.29,1.48c0,63.42-0.01,126.84,0.05,190.26c0,1.91-0.52,2.4-2.38,2.35c-4.32-0.12-4.32-0.02-4.32-4.25
		c0-61.26,0.01-122.52-0.05-183.78c0-2.34-0.04-4.26,2.86-4.58C471.73,1.48,473.01,1.48,474.29,1.48z"/>
	<path class="st1" d="M303.92,191.93c-8.37,0.86-16.58,1.29-24.81,0.99c-3.27-0.12-4.42-1.64-4.42-4.98
		c0-32.47-0.1-64.95,0.07-97.42c0.04-8.16-3.54-10.41-10.56-10.67c-5.66-0.21-10.44,1.94-14.09,6.4c-0.8,0.98-1.16,2-1.16,3.28
		c0.03,28.08-0.01,56.15,0.05,84.23c0.01,5.52,0.56,11.02,1.98,16.38c0.38,1.42,0.16,1.89-1.44,2.03
		c-7.33,0.62-14.67,0.94-22.03,0.83c-4.05-0.06-5.28-1.35-5.28-5.34c0-33.51,0-67.03-0.01-100.54c0-1.27-0.1-2.56-0.3-3.81
		c-0.63-4.01-2.42-5.92-6.37-6.78c-1.32-0.29-2.71-0.62-4.03-0.5c-2.26,0.21-2.29-0.99-2.07-2.6c0.55-4.01,2.52-7.15,6.21-8.81
		c7.65-3.44,15.61-3.69,23.63-1.44c2.67,0.75,4.93,2.45,6.48,4.73c1.16,1.72,1.93,1.44,3.49,0.49c11-6.74,22.84-8.19,35.24-4.99
		c4.34,1.12,8.07,3.52,10.95,6.98c1.15,1.38,1.81,1.12,3.02,0.17c11.13-8.75,23.77-10.56,37.18-7.35
		c12.06,2.89,18.23,11.16,18.25,23.63c0.03,17.76,0.01,35.51,0.01,53.27c0,9.84,0,19.68,0,29.51c0,7.32,2.15,9.76,9.38,10.62
		c0.63,0.08,1.28,0.25,1.9,0.19c1.37-0.13,1.61,0.58,1.53,1.73c-0.28,4.14-2.05,7.53-5.77,9.34c-8.66,4.19-17.6,4.47-26.37,0.45
		c-4.82-2.21-6.45-6.85-7.09-11.8c-0.25-1.9-0.32-3.83-0.32-5.74c-0.02-28-0.11-55.99,0.05-83.98c0.04-7.43-2.68-10.03-9.9-10.56
		c-3.81-0.28-7.47,0.57-10.72,2.75c-3.41,2.3-5.33,5.04-5.29,9.63c0.24,24.95,0.13,49.91,0.1,74.87
		C301.4,175.42,301.6,183.7,303.92,191.93z"/>
	<path class="st1" d="M121.9,127.59c0-12.64,0.23-25.28-0.07-37.9c-0.28-11.96,5.58-19.55,15.94-24.36
		c5.05-2.34,10.42-3.58,15.93-4.09c10.33-0.96,20.61-0.76,30.56,2.65c7.97,2.73,14.42,7.22,17.1,15.73c0.94,3,1.18,6.1,1.18,9.23
		c0,24.71-0.2,49.42,0.08,74.13c0.15,13.95-5.91,22.25-19.33,27.2c-9.81,3.62-20.02,3.84-30.29,3.02
		c-6.57-0.53-12.96-1.93-18.81-5.14c-8.13-4.46-12.34-11.27-12.31-20.65C121.93,154.14,121.9,140.87,121.9,127.59z M175.73,127.31
		c0-13.04-0.04-26.08,0.03-39.12c0.02-3.91-1.57-6.87-4.85-8.76c-5.79-3.34-11.75-3.34-17.55-0.02c-3.2,1.83-4.91,4.73-4.91,8.51
		c0,26.16,0,52.32,0,78.48c0,4,1.99,6.81,5.28,8.8c3.77,2.28,7.92,2.52,12.07,1.75c6.89-1.29,9.93-5.18,9.93-12.19
		C175.73,152.27,175.73,139.79,175.73,127.31z"/>
	<path class="st1" d="M372.58,127.11c0-13.84-0.09-27.67,0.03-41.51c0.08-9.74,4.99-16.41,13.78-20.31
		c6.6-2.93,13.61-3.94,20.76-4.31c9.54-0.49,19.03-0.27,28.23,2.66c15.83,5.04,20.63,16.21,19,30.44
		c-1.68,14.72-9.25,25.51-22.81,32.02c-10.14,4.87-20.1,10.13-30.18,15.13c-1.57,0.78-2.14,1.68-2.11,3.46
		c0.12,6.72,0.04,13.44,0.05,20.16c0.01,7.18,2.65,10.46,9.69,11.64c3.4,0.57,6.86,0.51,10.23-0.41c5.05-1.38,7.77-5.12,7.98-10.92
		c0.19-5.13-0.3-10.22-0.84-15.31c-0.39-3.63-0.33-3.53,3.28-3.96c6.04-0.73,11.96-0.27,17.79,1.43c4.75,1.38,5.78,2.79,5.78,7.65
		c0,5.2-0.08,10.4,0.02,15.6c0.13,6.99-3.02,12.08-8.77,15.74c-5.92,3.76-12.51,5.61-19.39,6.45c-11.34,1.38-22.65,1.35-33.77-1.71
		c-3.17-0.87-6.17-2.17-8.94-3.98c-6.38-4.18-9.39-10.24-9.79-17.73c-0.03-0.64-0.07-1.28-0.07-1.92c0-13.44,0-26.88,0-40.31
		C372.55,127.11,372.57,127.11,372.58,127.11z M399.36,122.65c6.43-3.59,12.5-6.91,18.49-10.36c2.1-1.21,3.67-3.07,4.97-5.11
		c3.26-5.09,4.12-10.82,4.37-16.69c0.27-6.25-2.19-9.96-8.19-11.89c-4.92-1.58-9.93-1.45-14.82,0.22c-2.89,0.98-4.79,3.02-4.8,6.19
		C399.33,97.39,399.36,109.77,399.36,122.65z"/>
	<path class="st1" d="M505.3,129.64c0,20.56-0.03,41.11,0.05,61.67c0.01,2.14-0.45,2.91-2.73,2.8c-3.92-0.2-3.93-0.05-3.93-3.91
		c0-28.71-0.01-57.43,0-86.14c0-12,0.12-23.99,0.01-35.99c-0.02-2.21,0.7-2.65,2.66-2.69c3.94-0.09,3.93-0.19,3.93,3.8
		C505.3,89.33,505.3,109.48,505.3,129.64z"/>
	<path class="st1" d="M502.39,12.12c-2.99,0.02-4.11-1.06-4.11-3.95c0-2.83,1.32-4.24,3.97-4.27c2.62-0.03,4,1.44,4,4.25
		C506.26,10.98,505.16,12.11,502.39,12.12z"/>
</g>
</svg>
